<svg width="355" height="494" viewBox="0 0 355 494" fill="none" xmlns="http://www.w3.org/2000/svg">
<g filter="url(#filter0_f_60_625)">
<ellipse cx="172.941" cy="319.382" rx="47.1773" ry="49.3818" fill="#D62A23"/>
</g>
<g clip-path="url(#clip0_60_625)">
<path d="M171.096 320.904L189.34 302.66" stroke="#D62A23" stroke-width="8" stroke-linecap="round" stroke-linejoin="round"/>
<path d="M204.237 281.296C203.482 280.555 202.466 280.141 201.408 280.141C200.35 280.141 199.335 280.555 198.579 281.296L194.077 285.798C192.561 287.314 191.709 289.37 191.708 291.513V296.945C191.708 299.089 190.856 301.145 189.34 302.66C190.855 301.144 192.911 300.292 195.055 300.292H200.487C202.63 300.291 204.686 299.439 206.202 297.923L210.704 293.421C211.445 292.665 211.859 291.65 211.859 290.592C211.859 289.534 211.445 288.518 210.704 287.763L204.237 281.296Z" stroke="#D62A23" stroke-width="8" stroke-linecap="round" stroke-linejoin="round"/>
<path d="M147.25 336.667L155.333 344.75" stroke="#D62A23" stroke-width="8" stroke-linecap="round" stroke-linejoin="round"/>
<path d="M156.142 312.012C158.162 307.567 162.608 304.333 167.458 304.333C178.775 304.333 187.667 313.225 187.667 324.542C187.667 329.392 184.433 333.837 179.987 335.858L176.35 337.475C174.929 338.095 173.716 339.11 172.856 340.4C171.997 341.69 171.526 343.2 171.5 344.75C171.5 349.038 169.797 353.15 166.765 356.182C163.733 359.213 159.621 360.917 155.333 360.917C141.996 360.917 131.083 350.004 131.083 336.667C131.083 332.379 132.787 328.267 135.818 325.235C138.85 322.203 142.962 320.5 147.25 320.5C148.8 320.474 150.31 320.003 151.6 319.143C152.89 318.284 153.905 317.071 154.525 315.65L156.142 312.012Z" stroke="#D62A23" stroke-width="8" stroke-linecap="round" stroke-linejoin="round"/>
<path d="M169.479 324.542C170.595 324.542 171.5 323.637 171.5 322.521C171.5 321.405 170.595 320.5 169.479 320.5C168.363 320.5 167.458 321.405 167.458 322.521C167.458 323.637 168.363 324.542 169.479 324.542Z" fill="#D62A23" stroke="#D62A23" stroke-width="8" stroke-linecap="round" stroke-linejoin="round"/>
</g>
<g filter="url(#filter1_f_60_625)">
<ellipse cx="218.567" cy="205.135" rx="36.4329" ry="38.1354" fill="#D62A23"/>
</g>
<path d="M217.142 206.311L231.231 192.222" stroke="#D62A23" stroke-width="6" stroke-linecap="round" stroke-linejoin="round"/>
<path d="M242.736 175.723C242.153 175.151 241.368 174.831 240.551 174.831C239.734 174.831 238.95 175.151 238.366 175.723L234.889 179.2C233.719 180.371 233.061 181.958 233.06 183.614V187.809C233.06 189.464 232.402 191.052 231.231 192.222C232.402 191.051 233.989 190.393 235.645 190.393H239.84C241.495 190.393 243.083 189.735 244.253 188.564L247.73 185.087C248.302 184.503 248.622 183.719 248.622 182.902C248.622 182.085 248.302 181.301 247.73 180.717L242.736 175.723Z" stroke="#D62A23" stroke-width="6" stroke-linecap="round" stroke-linejoin="round"/>
<path d="M198.727 218.484L204.97 224.726" stroke="#D62A23" stroke-width="6" stroke-linecap="round" stroke-linejoin="round"/>
<path d="M205.594 199.444C207.154 196.011 210.588 193.514 214.333 193.514C223.072 193.514 229.939 200.381 229.939 209.12C229.939 212.866 227.442 216.299 224.009 217.859L221.2 219.108C220.102 219.587 219.166 220.371 218.502 221.367C217.838 222.363 217.474 223.529 217.454 224.726C217.454 228.037 216.139 231.213 213.798 233.554C211.456 235.895 208.281 237.211 204.97 237.211C194.67 237.211 186.242 228.784 186.242 218.484C186.242 215.173 187.558 211.997 189.899 209.656C192.24 207.314 195.416 205.999 198.727 205.999C199.924 205.979 201.09 205.615 202.086 204.951C203.082 204.287 203.867 203.351 204.345 202.253L205.594 199.444Z" stroke="#D62A23" stroke-width="6" stroke-linecap="round" stroke-linejoin="round"/>
<path d="M215.894 209.12C216.756 209.12 217.454 208.421 217.454 207.559C217.454 206.698 216.756 205.999 215.894 205.999C215.032 205.999 214.333 206.698 214.333 207.559C214.333 208.421 215.032 209.12 215.894 209.12Z" fill="#D62A23" stroke="#D62A23" stroke-width="6" stroke-linecap="round" stroke-linejoin="round"/>
<g filter="url(#filter2_f_60_625)">
<ellipse cx="163.911" cy="107.542" rx="31.0894" ry="32.5422" fill="#D62A23"/>
</g>
<path d="M162.695 108.545L174.717 96.5227" stroke="#D62A23" stroke-width="4" stroke-linecap="round" stroke-linejoin="round"/>
<path d="M184.535 82.4439C184.037 81.9558 183.368 81.6825 182.67 81.6825C181.973 81.6825 181.304 81.9558 180.806 82.4439L177.839 85.4109C176.84 86.4096 176.278 87.7643 176.278 89.177V92.7566C176.278 94.1693 175.716 95.524 174.717 96.5227C175.716 95.5237 177.071 94.9622 178.483 94.9619H182.063C183.476 94.9616 184.83 94.4002 185.829 93.4012L188.796 90.4341C189.284 89.9362 189.558 89.2669 189.558 88.5697C189.558 87.8726 189.284 87.2032 188.796 86.7053L184.535 82.4439Z" stroke="#D62A23" stroke-width="4" stroke-linecap="round" stroke-linejoin="round"/>
<path d="M146.981 118.933L152.307 124.26" stroke="#D62A23" stroke-width="4" stroke-linecap="round" stroke-linejoin="round"/>
<path d="M152.84 102.686C154.172 99.7561 157.102 97.6254 160.298 97.6254C167.755 97.6254 173.615 103.485 173.615 110.942C173.615 114.139 171.484 117.068 168.554 118.4L166.157 119.465C165.221 119.874 164.422 120.543 163.855 121.393C163.288 122.243 162.978 123.238 162.961 124.26C162.961 127.085 161.839 129.795 159.841 131.793C157.843 133.791 155.133 134.913 152.307 134.913C143.518 134.913 136.327 127.722 136.327 118.933C136.327 116.107 137.449 113.397 139.447 111.399C141.445 109.401 144.155 108.279 146.981 108.279C148.002 108.262 148.997 107.952 149.847 107.385C150.697 106.818 151.366 106.019 151.775 105.083L152.84 102.686Z" stroke="#D62A23" stroke-width="4" stroke-linecap="round" stroke-linejoin="round"/>
<path d="M161.629 110.942C162.365 110.942 162.961 110.346 162.961 109.611C162.961 108.875 162.365 108.279 161.629 108.279C160.894 108.279 160.298 108.875 160.298 109.611C160.298 110.346 160.894 110.942 161.629 110.942Z" fill="#D62A23" stroke="#D62A23" stroke-width="4" stroke-linecap="round" stroke-linejoin="round"/>
<defs>
<filter id="filter0_f_60_625" x="0.763611" y="145" width="344.355" height="348.764" filterUnits="userSpaceOnUse" color-interpolation-filters="sRGB">
<feFlood flood-opacity="0" result="BackgroundImageFix"/>
<feBlend mode="normal" in="SourceGraphic" in2="BackgroundImageFix" result="shape"/>
<feGaussianBlur stdDeviation="62.5" result="effect1_foregroundBlur_60_625"/>
</filter>
<filter id="filter1_f_60_625" x="82.1342" y="67" width="272.866" height="276.271" filterUnits="userSpaceOnUse" color-interpolation-filters="sRGB">
<feFlood flood-opacity="0" result="BackgroundImageFix"/>
<feBlend mode="normal" in="SourceGraphic" in2="BackgroundImageFix" result="shape"/>
<feGaussianBlur stdDeviation="50" result="effect1_foregroundBlur_60_625"/>
</filter>
<filter id="filter2_f_60_625" x="57.8212" y="0" width="212.179" height="215.084" filterUnits="userSpaceOnUse" color-interpolation-filters="sRGB">
<feFlood flood-opacity="0" result="BackgroundImageFix"/>
<feBlend mode="normal" in="SourceGraphic" in2="BackgroundImageFix" result="shape"/>
<feGaussianBlur stdDeviation="37.5" result="effect1_foregroundBlur_60_625"/>
</filter>
<clipPath id="clip0_60_625">
<rect width="89" height="89" fill="white" transform="translate(127 276)"/>
</clipPath>
</defs>
</svg>
