<svg width="386" height="498" viewBox="0 0 386 498" fill="none" xmlns="http://www.w3.org/2000/svg">
<g filter="url(#filter0_f_60_513)">
<ellipse cx="172.941" cy="323.382" rx="47.1773" ry="49.3818" fill="#D62A23"/>
</g>
<g clip-path="url(#clip0_60_513)">
<path d="M156.5 365C165.613 365 173 357.613 173 348.5C173 339.387 165.613 332 156.5 332C147.387 332 140 339.387 140 348.5C140 357.613 147.387 365 156.5 365Z" fill="#D62A23" stroke="#D62A23" stroke-width="2" stroke-linecap="round" stroke-linejoin="round"/>
<path d="M168.091 346.603V281.936L196.383 298.103" stroke="#D62A23" stroke-width="12" stroke-linecap="round" stroke-linejoin="round"/>
</g>
<g filter="url(#filter1_f_60_513)">
<ellipse cx="248.841" cy="207.182" rx="36.4773" ry="38.1818" fill="#D62A23"/>
</g>
<path d="M237.5 239C244.404 239 250 233.404 250 226.5C250 219.596 244.404 214 237.5 214C230.596 214 225 219.596 225 226.5C225 233.404 230.596 239 237.5 239Z" fill="#D62A23" stroke="#D62A23" stroke-width="2" stroke-linecap="round" stroke-linejoin="round"/>
<path d="M245.091 225.136V175.136L266.966 187.636" stroke="#D62A23" stroke-width="12" stroke-linecap="round" stroke-linejoin="round"/>
<g filter="url(#filter2_f_60_513)">
<ellipse cx="155.291" cy="107.582" rx="31.1273" ry="32.5818" fill="#D62A23"/>
</g>
<path d="M146.667 134.333C152.558 134.333 157.333 129.558 157.333 123.667C157.333 117.776 152.558 113 146.667 113C140.776 113 136 117.776 136 123.667C136 129.558 140.776 134.333 146.667 134.333Z" fill="#D62A23" stroke="#D62A23" stroke-width="2" stroke-linecap="round" stroke-linejoin="round"/>
<path d="M152.5 123.5L152.091 80.2364L170.758 90.9031" stroke="#D62A23" stroke-width="12" stroke-linecap="round" stroke-linejoin="round"/>
<defs>
<filter id="filter0_f_60_513" x="0.763672" y="149" width="344.354" height="348.764" filterUnits="userSpaceOnUse" color-interpolation-filters="sRGB">
<feFlood flood-opacity="0" result="BackgroundImageFix"/>
<feBlend mode="normal" in="SourceGraphic" in2="BackgroundImageFix" result="shape"/>
<feGaussianBlur stdDeviation="62.5" result="effect1_foregroundBlur_60_513"/>
</filter>
<filter id="filter1_f_60_513" x="112.364" y="69" width="272.955" height="276.364" filterUnits="userSpaceOnUse" color-interpolation-filters="sRGB">
<feFlood flood-opacity="0" result="BackgroundImageFix"/>
<feBlend mode="normal" in="SourceGraphic" in2="BackgroundImageFix" result="shape"/>
<feGaussianBlur stdDeviation="50" result="effect1_foregroundBlur_60_513"/>
</filter>
<filter id="filter2_f_60_513" x="49.1637" y="0" width="212.255" height="215.164" filterUnits="userSpaceOnUse" color-interpolation-filters="sRGB">
<feFlood flood-opacity="0" result="BackgroundImageFix"/>
<feBlend mode="normal" in="SourceGraphic" in2="BackgroundImageFix" result="shape"/>
<feGaussianBlur stdDeviation="37.5" result="effect1_foregroundBlur_60_513"/>
</filter>
<clipPath id="clip0_60_513">
<rect width="64" height="91" fill="white" transform="translate(139 275)"/>
</clipPath>
</defs>
</svg>
