<svg width="213" height="216" viewBox="0 0 213 216" fill="none" xmlns="http://www.w3.org/2000/svg">
<g filter="url(#filter0_f_60_806)">
<ellipse cx="106.291" cy="107.582" rx="31.1273" ry="32.5818" fill="#D62A23"/>
</g>
<path d="M79.3334 81.3333L100.667 102.667" stroke="#D62A23" stroke-width="4" stroke-linecap="round" stroke-linejoin="round"/>
<path d="M132.667 81.3333L111.333 102.667" stroke="#D62A23" stroke-width="4" stroke-linecap="round" stroke-linejoin="round"/>
<path d="M106 113.333C120.728 113.333 132.667 107.364 132.667 100C132.667 92.6362 120.728 86.6667 106 86.6667C91.2724 86.6667 79.3334 92.6362 79.3334 100C79.3334 107.364 91.2724 113.333 106 113.333Z" stroke="#D62A23" stroke-width="4" stroke-linecap="round" stroke-linejoin="round"/>
<path d="M92.6666 111.733V132.8" stroke="#D62A23" stroke-width="4" stroke-linecap="round" stroke-linejoin="round"/>
<path d="M106 113.333V134.667" stroke="#D62A23" stroke-width="4" stroke-linecap="round" stroke-linejoin="round"/>
<path d="M119.333 111.733V132.8" stroke="#D62A23" stroke-width="4" stroke-linecap="round" stroke-linejoin="round"/>
<path d="M79.3334 100V121.333C79.3334 124.87 82.1429 128.261 87.1439 130.761C92.1448 133.262 98.9276 134.667 106 134.667C113.072 134.667 119.855 133.262 124.856 130.761C129.857 128.261 132.667 124.87 132.667 121.333V100" stroke="#D62A23" stroke-width="4" stroke-linecap="round" stroke-linejoin="round"/>
<defs>
<filter id="filter0_f_60_806" x="0.163696" y="0" width="212.255" height="215.164" filterUnits="userSpaceOnUse" color-interpolation-filters="sRGB">
<feFlood flood-opacity="0" result="BackgroundImageFix"/>
<feBlend mode="normal" in="SourceGraphic" in2="BackgroundImageFix" result="shape"/>
<feGaussianBlur stdDeviation="37.5" result="effect1_foregroundBlur_60_806"/>
</filter>
</defs>
</svg>
