<svg width="213" height="216" viewBox="0 0 213 216" fill="none" xmlns="http://www.w3.org/2000/svg">
<g filter="url(#filter0_f_60_616)">
<ellipse cx="106.911" cy="107.542" rx="31.0894" ry="32.5422" fill="#D62A23"/>
</g>
<path d="M105.695 108.545L117.717 96.5227" stroke="#D62A23" stroke-width="4" stroke-linecap="round" stroke-linejoin="round"/>
<path d="M127.535 82.4439C127.037 81.9558 126.368 81.6825 125.67 81.6825C124.973 81.6825 124.304 81.9558 123.806 82.4439L120.839 85.4109C119.84 86.4096 119.278 87.7643 119.278 89.177V92.7566C119.278 94.1693 118.716 95.524 117.717 96.5227C118.716 95.5237 120.071 94.9622 121.483 94.9619H125.063C126.476 94.9616 127.83 94.4002 128.829 93.4012L131.796 90.4341C132.284 89.9362 132.558 89.2669 132.558 88.5697C132.558 87.8726 132.284 87.2032 131.796 86.7053L127.535 82.4439Z" stroke="#D62A23" stroke-width="4" stroke-linecap="round" stroke-linejoin="round"/>
<path d="M89.9805 118.933L95.3074 124.26" stroke="#D62A23" stroke-width="4" stroke-linecap="round" stroke-linejoin="round"/>
<path d="M95.8401 102.686C97.1718 99.7561 100.102 97.6254 103.298 97.6254C110.755 97.6254 116.615 103.485 116.615 110.942C116.615 114.139 114.484 117.068 111.554 118.4L109.157 119.465C108.221 119.874 107.422 120.543 106.855 121.393C106.288 122.243 105.978 123.238 105.961 124.26C105.961 127.085 104.839 129.795 102.841 131.793C100.843 133.791 98.1329 134.913 95.3074 134.913C86.5181 134.913 79.3268 127.722 79.3268 118.933C79.3268 116.107 80.4493 113.397 82.4472 111.399C84.4452 109.401 87.155 108.279 89.9805 108.279C91.002 108.262 91.997 107.952 92.847 107.385C93.6971 106.818 94.3662 106.019 94.7747 105.083L95.8401 102.686Z" stroke="#D62A23" stroke-width="4" stroke-linecap="round" stroke-linejoin="round"/>
<path d="M104.629 110.942C105.365 110.942 105.961 110.346 105.961 109.611C105.961 108.875 105.365 108.279 104.629 108.279C103.894 108.279 103.298 108.875 103.298 109.611C103.298 110.346 103.894 110.942 104.629 110.942Z" fill="#D62A23" stroke="#D62A23" stroke-width="4" stroke-linecap="round" stroke-linejoin="round"/>
<defs>
<filter id="filter0_f_60_616" x="0.821167" y="0" width="212.179" height="215.084" filterUnits="userSpaceOnUse" color-interpolation-filters="sRGB">
<feFlood flood-opacity="0" result="BackgroundImageFix"/>
<feBlend mode="normal" in="SourceGraphic" in2="BackgroundImageFix" result="shape"/>
<feGaussianBlur stdDeviation="37.5" result="effect1_foregroundBlur_60_616"/>
</filter>
</defs>
</svg>
