<svg width="214" height="217" viewBox="0 0 214 217" fill="none" xmlns="http://www.w3.org/2000/svg">
<g filter="url(#filter0_f_59_430)">
<ellipse cx="107.004" cy="108.5" rx="32.0045" ry="33.5" fill="#D62A23"/>
</g>
<path d="M99.0034 125.25V88.9583L131.008 83.375V119.667" stroke="#D62A23" stroke-width="12" stroke-linecap="round" stroke-linejoin="round"/>
<path d="M91.0022 133.625C95.4211 133.625 99.0033 129.875 99.0033 125.25C99.0033 120.625 95.4211 116.875 91.0022 116.875C86.5833 116.875 83.0011 120.625 83.0011 125.25C83.0011 129.875 86.5833 133.625 91.0022 133.625Z" fill="#D62A23" stroke="#D62A23" stroke-width="12" stroke-linecap="round" stroke-linejoin="round"/>
<path d="M123.007 128.042C127.426 128.042 131.008 124.292 131.008 119.667C131.008 115.041 127.426 111.292 123.007 111.292C118.588 111.292 115.006 115.041 115.006 119.667C115.006 124.292 118.588 128.042 123.007 128.042Z" fill="#D62A23" stroke="#D62A23" stroke-width="12" stroke-linecap="round" stroke-linejoin="round"/>
<defs>
<filter id="filter0_f_59_430" x="0" y="0" width="214.009" height="217" filterUnits="userSpaceOnUse" color-interpolation-filters="sRGB">
<feFlood flood-opacity="0" result="BackgroundImageFix"/>
<feBlend mode="normal" in="SourceGraphic" in2="BackgroundImageFix" result="shape"/>
<feGaussianBlur stdDeviation="37.5" result="effect1_foregroundBlur_59_430"/>
</filter>
</defs>
</svg>
